<?xml version="1.0" standalone="no"?>
<!DOCTYPE svg PUBLIC "-//W3C//DTD SVG 20010904//EN"
 "http://www.w3.org/TR/2001/REC-SVG-20010904/DTD/svg10.dtd">
<svg version="1.0" xmlns="http://www.w3.org/2000/svg"
 width="2076.000000pt" height="2076.000000pt" viewBox="0 0 2076.000000 2076.000000"
 preserveAspectRatio="xMidYMid meet">
<metadata>
Created by potrace 1.14, written by Peter Selinger 2001-2017
</metadata>
<g transform="translate(0.000000,2076.000000) scale(0.100000,-0.100000)"
fill="#000000" stroke="none">
<path d="M15877 14043 c-4 -7 -15 -11 -25 -11 -26 2 -149 -12 -214 -23 -31 -5
-60 -9 -65 -8 -4 1 -19 -1 -33 -4 -14 -4 -36 -9 -50 -11 -14 -2 -36 -7 -50
-10 -14 -3 -38 -8 -55 -10 -39 -6 -196 -45 -215 -53 -8 -3 -24 -8 -34 -10 -45
-8 -270 -88 -381 -135 -195 -82 -413 -196 -568 -299 -32 -22 -63 -39 -68 -39
-5 0 -9 -4 -9 -10 0 -5 -13 -16 -29 -25 -16 -8 -35 -20 -43 -27 -7 -8 -38 -31
-68 -53 -30 -22 -57 -42 -60 -45 -3 -3 -18 -16 -34 -28 -105 -81 -370 -337
-451 -436 -22 -27 -45 -54 -50 -60 -47 -51 -105 -125 -105 -134 0 -6 -6 -15
-13 -19 -8 -4 -42 -51 -78 -103 -35 -52 -70 -101 -76 -108 -7 -7 -13 -20 -13
-28 0 -8 -3 -14 -8 -14 -7 0 -38 -52 -111 -184 -67 -123 -89 -167 -95 -191 -4
-14 -11 -25 -16 -25 -6 0 -10 -8 -10 -18 0 -10 -6 -26 -13 -37 -36 -55 -168
-421 -192 -535 -2 -8 -10 -40 -19 -70 -8 -30 -17 -66 -20 -80 -3 -14 -12 -56
-20 -95 -15 -71 -24 -122 -32 -185 -3 -19 -7 -46 -9 -60 -6 -35 -18 -148 -19
-190 -1 -19 -4 -39 -7 -45 -6 -11 -3 -492 5 -575 5 -60 13 -134 22 -193 7 -50
14 -105 19 -142 2 -16 4 -30 5 -30 1 0 3 -9 5 -20 2 -11 7 -36 11 -55 4 -19 8
-42 10 -50 13 -65 27 -126 45 -190 12 -41 23 -82 24 -90 2 -8 4 -16 5 -17 2
-2 3 -6 4 -10 13 -55 122 -349 147 -395 5 -10 9 -25 9 -33 0 -8 5 -15 10 -15
6 0 10 -5 10 -11 0 -16 90 -199 112 -228 10 -13 18 -32 18 -42 0 -11 4 -19 9
-19 5 0 12 -8 15 -18 6 -18 67 -118 86 -139 6 -7 7 -13 3 -13 -4 0 -3 -4 3 -8
6 -4 28 -34 50 -67 44 -67 86 -127 94 -135 3 -3 24 -30 47 -60 42 -55 52 -66
141 -170 62 -72 230 -240 316 -315 38 -33 74 -65 80 -70 6 -6 49 -40 96 -75
47 -35 88 -69 92 -74 5 -7 8 -7 8 -1 0 7 3 7 8 0 11 -16 80 -65 90 -65 6 0 12
-3 14 -7 3 -8 114 -83 122 -83 2 0 33 -17 67 -38 35 -22 96 -54 134 -73 39
-19 72 -37 73 -42 2 -4 8 -5 13 -1 5 3 9 0 9 -5 0 -6 5 -11 11 -11 10 0 37
-11 144 -61 28 -12 57 -24 65 -25 8 -2 23 -7 35 -13 75 -36 435 -147 435 -134
0 3 6 0 14 -6 8 -7 28 -13 45 -13 17 -1 31 -4 31 -7 0 -3 17 -7 37 -9 20 -1
39 -6 43 -10 3 -4 21 -7 40 -7 19 0 48 -3 65 -7 52 -14 255 -37 385 -44 203
-12 462 -7 610 12 112 14 236 32 270 39 32 7 89 17 115 21 11 1 22 3 25 5 3 1
10 3 15 4 6 2 12 4 15 5 3 1 12 3 20 5 88 17 351 99 437 136 22 9 44 15 47 12
3 -4 6 0 6 7 0 7 3 11 6 7 3 -3 36 8 72 25 72 32 101 44 117 48 6 1 22 11 38
22 15 11 27 16 27 11 0 -4 4 -3 8 2 4 6 36 24 72 42 77 38 165 88 202 114 14
10 31 19 37 19 6 0 11 5 11 10 0 6 7 10 15 10 8 0 15 5 15 10 0 6 7 10 15 10
8 0 15 5 15 10 0 6 4 10 9 10 14 0 131 82 131 92 0 4 6 8 13 8 6 0 26 14 44
30 18 17 35 30 39 30 4 0 23 15 44 33 20 17 64 54 96 82 32 27 120 111 194
186 123 123 159 162 221 239 11 14 28 34 37 45 10 11 20 25 22 30 4 9 32 44
56 69 9 10 164 243 213 321 69 109 249 482 265 550 1 6 10 28 20 50 10 22 18
48 19 58 1 9 6 17 11 17 5 0 7 3 4 6 -5 5 17 84 39 144 8 20 11 30 17 58 3 13
8 32 11 42 3 10 8 27 10 37 3 10 9 38 16 63 12 51 16 70 25 120 7 35 10 51 19
92 6 29 14 84 20 139 3 24 8 64 11 89 3 25 6 63 8 85 1 22 5 45 8 50 6 11 1
581 -6 635 -2 19 -7 62 -10 95 -4 33 -9 72 -12 85 -3 14 -7 43 -10 65 -5 49
-11 80 -14 80 -1 0 -3 11 -4 25 -2 14 -8 50 -15 80 -7 30 -15 66 -17 80 -7 41
-71 263 -87 305 -6 17 -12 35 -12 40 -1 6 -5 19 -9 30 -5 11 -27 67 -48 125
-71 188 -169 386 -291 590 -28 47 -57 91 -63 98 -7 6 -16 21 -19 32 -3 11 -11
20 -16 20 -5 0 -9 4 -9 10 0 8 -82 124 -112 159 -7 8 -30 37 -50 65 -111 147
-388 426 -546 551 -14 11 -34 28 -44 38 -10 9 -18 14 -18 10 0 -5 -4 -3 -8 2
-13 19 -99 85 -110 85 -6 0 -12 3 -14 8 -4 10 -91 71 -168 117 -36 21 -67 41
-70 44 -16 18 -439 231 -458 231 -4 0 -26 9 -48 19 -43 21 -328 119 -360 124
-10 1 -23 5 -29 8 -5 4 -26 9 -45 13 -55 10 -115 23 -115 26 0 2 -36 9 -79 15
-21 3 -42 7 -46 10 -4 3 -25 7 -46 9 -22 3 -50 7 -64 10 -160 30 -508 47 -712
35 -32 -2 -59 0 -61 5 -2 6 -6 5 -10 -1z m453 -1308 c36 -4 76 -8 90 -11 14
-2 45 -7 70 -10 25 -3 53 -7 62 -10 10 -3 30 -7 45 -10 69 -10 324 -91 403
-127 125 -56 148 -67 205 -100 33 -18 80 -46 105 -62 25 -16 47 -27 49 -26 2
2 7 -1 10 -6 3 -5 31 -26 61 -48 30 -22 60 -43 65 -48 47 -36 174 -147 192
-167 8 -9 50 -54 93 -100 44 -47 80 -88 80 -92 0 -4 8 -15 18 -25 74 -72 233
-336 320 -533 31 -68 99 -264 106 -302 3 -13 5 -23 6 -23 1 0 3 -7 5 -15 14
-53 25 -99 29 -125 6 -32 12 -64 21 -105 3 -14 8 -47 11 -75 3 -27 7 -61 10
-75 3 -22 16 -269 16 -295 -2 -70 -12 -237 -16 -260 -2 -16 -7 -52 -11 -80 -5
-43 -24 -144 -40 -215 -3 -14 -7 -34 -9 -45 -9 -45 -19 -81 -26 -90 -4 -5 -10
-26 -14 -45 -6 -35 -51 -156 -88 -240 -33 -74 -41 -95 -40 -102 1 -5 -3 -8 -8
-8 -6 0 -10 -4 -10 -10 0 -5 -25 -52 -55 -105 -30 -52 -55 -99 -55 -104 0 -5
-3 -11 -7 -13 -5 -1 -24 -25 -42 -53 -19 -27 -37 -52 -41 -55 -3 -3 -18 -24
-34 -47 -16 -24 -33 -43 -37 -43 -5 0 -9 -5 -9 -11 0 -24 -209 -234 -335 -337
-41 -33 -166 -122 -195 -138 -19 -10 -37 -22 -40 -25 -5 -7 -170 -99 -176 -99
-2 0 -32 -13 -66 -30 -34 -16 -65 -30 -70 -30 -4 0 -27 -9 -51 -19 -47 -22
-158 -58 -269 -87 -5 -1 -9 -2 -10 -3 -2 -2 -16 -4 -33 -6 -16 -2 -41 -7 -55
-10 -14 -4 -38 -9 -55 -11 -16 -2 -45 -6 -64 -9 -128 -20 -417 -26 -546 -11
-38 4 -85 9 -102 10 -18 0 -33 3 -33 6 0 3 -8 6 -17 6 -10 1 -31 4 -48 7 -16
3 -43 9 -60 12 -16 3 -37 8 -45 11 -8 3 -28 8 -44 11 -106 18 -401 138 -521
212 -22 13 -42 24 -45 24 -10 0 -197 131 -265 186 -75 60 -247 229 -307 301
-68 82 -118 149 -118 160 0 5 -3 10 -8 10 -7 0 -73 101 -119 185 -66 118 -150
304 -178 395 -9 30 -20 64 -25 75 -8 19 -27 89 -36 127 -2 10 -6 28 -9 41 -11
45 -34 163 -39 207 -4 25 -9 62 -12 82 -19 123 -18 488 0 584 2 12 7 45 11 75
4 30 10 72 15 94 5 22 11 54 14 70 6 31 12 61 21 95 11 45 16 66 21 87 2 12 9
35 16 50 6 16 12 33 13 38 10 38 114 294 125 305 3 3 16 28 30 55 13 28 38 73
55 100 16 28 37 62 44 78 8 15 18 27 23 27 4 0 8 4 8 10 0 10 93 142 120 170
8 9 35 40 60 70 45 53 168 176 225 223 91 77 129 105 229 172 147 97 401 226
428 217 5 -1 8 2 8 8 0 6 3 9 8 8 4 -1 53 13 110 31 57 18 111 34 120 36 9 2
18 4 20 5 3 3 10 5 67 15 28 4 55 10 60 11 43 12 118 22 240 30 50 4 91 7 92
8 4 3 225 -3 283 -9z"/>
<path d="M19977 14044 c-1 -2 -26 -6 -55 -9 -100 -11 -239 -64 -316 -119 -99
-71 -184 -175 -231 -279 -41 -93 -39 -88 -63 -207 -9 -47 -8 -190 2 -250 14
-90 103 -300 127 -300 5 0 9 -6 9 -13 0 -15 106 -118 160 -156 79 -56 223
-112 297 -115 18 0 33 -3 33 -6 0 -8 206 -3 237 6 16 4 30 8 33 9 3 1 20 5 39
9 100 24 232 103 311 188 59 63 61 65 95 123 73 123 105 249 101 400 -3 93 -8
133 -30 220 -11 43 -60 144 -92 192 -34 49 -130 153 -142 153 -5 0 -17 9 -27
20 -10 11 -24 20 -32 20 -7 0 -13 3 -13 8 0 8 -61 38 -72 34 -5 -1 -8 3 -8 8
0 6 -7 10 -15 10 -8 0 -23 4 -33 9 -9 6 -30 13 -47 17 -16 4 -32 8 -35 9 -40
11 -226 26 -233 19z m216 -113 c92 -22 211 -88 281 -156 66 -65 141 -197 161
-281 2 -11 9 -36 14 -57 13 -55 6 -243 -12 -307 -23 -81 -74 -186 -99 -201 -7
-5 -13 -12 -13 -16 0 -24 -110 -120 -184 -162 -31 -17 -131 -52 -131 -45 0 3
-6 2 -12 -3 -17 -10 -45 -15 -90 -17 -21 0 -38 -5 -38 -9 0 -5 -5 -5 -10 -2
-6 3 -40 8 -78 10 -71 3 -161 22 -176 36 -6 5 -17 9 -26 9 -41 0 -240 157
-240 189 0 6 -4 11 -8 11 -10 0 -82 138 -87 166 -2 11 -4 19 -6 19 -1 0 -3 9
-5 20 -2 11 -7 36 -10 55 -8 44 -9 192 -1 243 27 177 166 371 317 443 93 45
122 55 163 57 20 1 37 5 37 8 0 10 201 2 253 -10z"/>
<path d="M19759 13756 c-1 -1 -2 -191 -3 -423 l-1 -423 61 0 60 0 -1 150 c-1
175 -10 163 119 158 l79 -3 33 -45 c18 -25 33 -48 33 -53 1 -7 46 -79 64 -102
4 -5 21 -31 37 -57 28 -45 30 -46 85 -50 90 -5 92 -2 38 77 -27 39 -74 109
-105 156 l-57 87 37 18 c46 24 105 85 128 132 44 93 16 229 -62 306 -65 63
-96 69 -336 71 -115 1 -209 1 -209 1z m229 -121 c6 -2 12 1 12 8 0 7 3 8 8 2
4 -5 45 -10 92 -10 77 0 89 -3 116 -25 96 -78 70 -233 -45 -272 -20 -6 -94
-12 -166 -12 l-129 -1 -1 157 c0 86 2 155 5 153 3 -2 12 0 19 4 12 8 63 6 89
-4z"/>
<path d="M3 11697 c1 -1250 6 -2283 9 -2297 4 -14 9 -54 13 -89 3 -36 9 -81
12 -100 3 -20 7 -51 7 -68 1 -18 4 -33 8 -33 4 0 7 -8 6 -17 0 -19 8 -72 17
-113 3 -14 8 -36 11 -48 4 -22 21 -86 45 -169 5 -18 13 -48 18 -65 9 -32 56
-168 68 -198 3 -8 7 -17 8 -20 6 -18 55 -129 84 -190 9 -19 21 -38 26 -42 6
-4 7 -8 3 -8 -4 0 9 -27 28 -61 18 -33 34 -63 34 -65 0 -14 181 -280 225 -330
6 -7 24 -29 40 -50 90 -113 253 -274 385 -379 41 -33 77 -63 80 -66 3 -3 20
-14 37 -24 18 -11 33 -23 33 -27 0 -4 7 -8 15 -8 8 0 15 -4 15 -10 0 -5 7 -10
15 -10 8 0 15 -4 15 -9 0 -5 14 -14 30 -21 17 -7 30 -16 30 -21 0 -5 5 -9 10
-9 6 0 39 -17 74 -39 35 -21 77 -44 95 -52 17 -8 31 -17 31 -21 0 -5 3 -7 8
-6 4 1 56 -21 115 -50 59 -29 112 -52 117 -52 6 0 18 -4 28 -9 27 -14 80 -33
88 -31 4 1 10 -2 13 -7 9 -13 234 -81 356 -108 11 -3 30 -7 43 -10 12 -3 30
-7 41 -9 10 -2 36 -7 57 -10 22 -4 46 -8 54 -11 8 -2 35 -6 60 -9 25 -3 56 -8
70 -11 14 -3 59 -8 100 -11 41 -3 93 -7 115 -10 50 -5 388 -5 435 0 19 2 69 7
110 11 41 4 86 8 100 10 14 3 43 7 65 10 22 3 49 7 61 10 12 2 39 7 60 10 21
4 79 15 127 27 49 11 96 21 105 23 9 2 18 4 20 5 1 2 7 4 12 5 6 1 11 3 13 5
1 1 9 3 17 5 77 18 260 81 338 117 26 11 93 42 150 69 56 26 105 48 109 48 3
-1 9 3 12 8 3 5 33 24 66 42 84 47 254 160 290 193 17 15 33 28 38 28 4 0 15
8 25 18 10 9 45 40 77 67 76 65 207 196 270 269 71 83 78 91 100 122 11 15 26
33 33 40 6 7 12 15 12 18 0 3 18 29 40 58 22 29 40 58 40 65 0 6 4 13 9 15 14
5 150 248 191 343 67 153 159 411 174 488 3 12 12 54 21 92 9 39 19 79 21 90
2 11 6 31 9 45 3 14 8 39 10 55 2 17 7 48 11 70 4 22 8 51 10 65 5 50 16 146
21 195 3 28 7 1059 8 2291 l3 2242 -664 0 c-496 0 -664 -3 -665 -11 -1 -7 -2
-1002 -4 -2212 -2 -1210 -5 -2213 -9 -2230 -3 -16 -8 -51 -10 -76 -12 -110
-50 -266 -101 -419 -23 -66 -114 -253 -127 -258 -5 -2 -8 -9 -8 -16 0 -13
-127 -185 -174 -234 -47 -51 -120 -119 -183 -172 -7 -5 -16 -10 -22 -10 -5 0
-11 -4 -13 -8 -4 -12 -95 -72 -107 -72 -6 0 -11 -4 -11 -8 0 -4 -42 -29 -92
-55 -112 -56 -188 -88 -188 -80 0 3 -6 1 -13 -5 -7 -6 -24 -13 -37 -16 -14 -2
-44 -11 -67 -20 -24 -8 -43 -13 -43 -11 0 3 -12 0 -27 -6 -16 -6 -40 -12 -55
-14 -15 -2 -53 -9 -85 -14 -212 -39 -468 -30 -715 24 -13 3 -33 7 -45 9 -12 3
-32 10 -45 17 -13 7 -25 12 -28 11 -9 -3 -85 20 -105 31 -11 6 -25 12 -31 13
-19 3 -189 88 -192 96 -2 5 -8 8 -13 8 -12 0 -138 85 -189 127 -70 58 -172
160 -213 213 -55 72 -69 90 -85 106 -7 8 -11 14 -7 14 3 0 -7 20 -24 43 -45
66 -149 285 -157 332 -1 6 -9 33 -19 60 -9 28 -18 57 -20 65 -2 8 -8 33 -13
55 -6 22 -13 56 -16 75 -2 19 -7 46 -10 60 -6 28 -15 109 -21 190 -3 30 -7
463 -9 963 -3 499 -8 912 -11 917 -3 6 -1 10 5 10 7 0 8 6 0 19 -5 11 -7 22
-3 24 5 3 6 45 3 94 -3 48 -2 90 2 91 5 2 5 8 2 14 -9 14 -11 267 -2 281 4 6
4 16 0 21 -3 6 -7 310 -8 676 -2 366 -3 805 -4 976 l-2 312 -664 0 -665 0 4
-2271z"/>
<path d="M6897 13961 c-2 -3 -3 -291 -2 -639 1 -688 -2 -658 56 -642 16 5 31
5 33 1 5 -8 81 -5 96 4 6 3 10 2 10 -3 0 -5 17 -6 40 -2 22 4 40 4 40 -1 0 -5
11 -4 25 1 13 5 26 6 29 2 5 -8 85 -6 93 2 3 3 15 1 27 -4 13 -4 29 -4 39 1
11 7 17 6 17 0 0 -7 8 -7 25 -1 15 6 27 6 30 0 3 -6 15 -6 30 0 17 7 25 6 25
-1 0 -8 4 -8 14 0 8 7 17 8 19 4 5 -9 80 -8 95 0 4 3 16 1 27 -3 11 -4 30 -4
43 1 12 5 22 5 22 0 0 -5 18 -5 40 -1 22 4 40 4 40 -1 0 -5 11 -4 25 1 13 5
26 6 29 2 5 -8 85 -6 93 2 3 3 15 1 27 -4 13 -4 29 -4 39 1 11 7 17 6 17 0 0
-7 8 -7 25 -1 15 6 27 6 30 0 3 -6 15 -6 30 0 17 7 25 6 25 -1 0 -8 4 -8 14 0
8 7 17 8 19 4 6 -10 82 -7 99 3 6 4 8 3 5 -3 -4 -6 10 -7 38 -3 25 4 45 4 45
1 0 -3 13 -6 29 -6 16 0 27 3 25 7 -3 4 5 4 18 -1 12 -4 37 -5 55 -1 18 5 33
4 33 -1 0 -5 11 -4 25 1 13 5 27 6 29 1 3 -4 26 -5 51 -1 25 4 45 4 45 1 0 -3
14 -6 30 -6 17 0 30 3 30 7 0 4 10 4 23 -1 12 -5 24 -9 27 -11 3 -1 17 3 33 9
15 6 27 7 27 2 0 -5 18 -5 40 -1 22 4 40 4 40 -1 0 -5 11 -4 25 1 13 5 26 6
29 2 5 -9 82 -6 98 4 6 4 8 3 5 -3 -4 -6 10 -7 38 -3 25 4 45 4 45 1 0 -3 11
-6 25 -6 14 0 25 3 25 7 0 4 10 4 22 -1 12 -4 37 -5 55 -1 18 5 33 5 33 1 0
-3 13 -6 29 -6 16 0 27 3 25 7 -3 4 5 4 18 -1 12 -4 37 -5 55 -1 18 5 33 4 33
-1 0 -5 11 -4 25 1 13 5 26 6 29 2 5 -9 81 -6 96 3 6 3 10 2 10 -3 0 -5 17 -6
40 -2 22 4 40 4 40 -1 0 -5 11 -4 25 1 13 5 26 6 29 2 5 -8 85 -6 93 2 3 3 15
1 27 -4 13 -4 29 -4 39 1 11 7 17 6 17 0 0 -7 8 -7 25 -1 15 6 27 6 30 0 3 -6
15 -6 30 0 17 7 25 6 25 -1 0 -8 4 -8 14 0 8 7 17 8 19 4 6 -10 82 -7 99 3 6
4 8 3 5 -3 -4 -6 10 -7 38 -3 25 4 45 4 45 1 0 -4 9 -7 20 -7 11 0 20 4 20 8
0 4 10 4 23 -1 12 -5 31 -5 43 -1 11 5 27 4 34 0 8 -5 22 -4 32 1 12 6 18 6
18 0 0 -7 9 -7 25 -1 17 6 25 6 25 -1 0 -6 5 -7 10 -4 20 12 9 -9 -27 -54 -21
-25 -43 -53 -50 -61 -47 -59 -181 -223 -211 -258 -20 -24 -43 -54 -51 -65 -9
-12 -20 -27 -26 -33 -12 -13 -47 -55 -149 -184 -42 -52 -90 -110 -106 -128
-17 -19 -30 -38 -30 -42 0 -5 -8 -15 -17 -22 -10 -7 -40 -42 -68 -78 -27 -36
-52 -67 -55 -70 -3 -3 -23 -27 -44 -55 -22 -27 -48 -58 -58 -68 -10 -10 -18
-21 -18 -25 0 -4 -13 -20 -28 -37 -15 -16 -66 -77 -112 -135 -47 -58 -90 -112
-97 -120 -7 -8 -47 -58 -90 -111 -43 -52 -91 -112 -108 -133 -16 -21 -37 -46
-45 -56 -8 -10 -28 -35 -45 -56 -16 -21 -39 -48 -50 -60 -11 -12 -29 -34 -39
-49 -11 -14 -27 -35 -35 -45 -20 -23 -24 -28 -151 -185 -57 -72 -109 -135
-115 -141 -5 -6 -23 -28 -40 -49 -16 -21 -34 -43 -40 -50 -5 -6 -26 -31 -45
-55 -50 -65 -53 -69 -75 -93 -11 -12 -33 -40 -49 -62 -17 -22 -32 -42 -36 -45
-3 -3 -25 -30 -50 -60 -25 -30 -49 -60 -55 -67 -5 -6 -20 -24 -32 -40 -12 -15
-30 -38 -40 -49 -10 -12 -29 -36 -43 -54 -14 -18 -29 -38 -35 -44 -5 -6 -48
-58 -95 -116 -46 -58 -88 -106 -92 -108 -4 -2 -8 -8 -8 -14 0 -6 -6 -16 -13
-22 -8 -6 -70 -81 -138 -166 -68 -85 -128 -160 -134 -166 -5 -6 -19 -23 -30
-38 -11 -15 -39 -48 -62 -74 -24 -26 -43 -50 -43 -54 0 -4 -13 -21 -30 -38
-16 -17 -30 -35 -30 -40 0 -6 -4 -10 -10 -10 -5 0 -10 -7 -10 -17 0 -9 -3 -13
-7 -10 -3 4 -13 -4 -22 -17 -14 -22 -168 -214 -181 -226 -3 -3 -41 -50 -85
-105 -81 -101 -112 -139 -130 -159 -6 -6 -35 -42 -65 -81 -30 -38 -62 -77 -70
-85 -14 -13 -16 -93 -15 -718 0 -748 -1 -736 46 -712 9 5 19 7 22 4 7 -7 107
-11 107 -4 0 3 21 4 47 3 27 -1 48 -2 48 -3 0 -6 47 -5 51 1 2 5 15 4 27 0 12
-5 32 -5 45 0 12 5 22 5 22 0 0 -4 12 -6 28 -3 31 6 45 19 147 147 22 27 49
59 60 71 11 11 31 36 45 54 14 19 33 42 43 52 9 10 17 20 17 23 0 3 8 13 18
23 9 10 26 30 37 43 104 127 145 177 160 193 6 6 33 39 60 73 28 35 53 63 58
63 4 0 7 6 7 14 0 8 3 16 8 18 6 2 257 303 352 422 8 10 20 23 25 30 6 6 32
38 60 71 27 33 54 65 60 71 5 7 19 24 29 38 11 15 29 37 40 50 52 59 66 78 66
87 0 6 5 7 10 4 6 -3 10 0 10 9 0 8 3 16 8 18 4 2 27 28 52 58 25 30 47 57 50
60 3 3 57 68 120 145 62 77 120 148 129 157 9 9 21 23 26 30 92 115 161 199
197 239 13 14 35 41 49 60 15 19 35 44 45 56 11 12 26 30 34 40 51 62 105 129
110 133 3 3 34 41 69 85 36 44 72 88 80 97 9 9 21 23 26 30 16 21 99 122 110
134 5 6 22 26 37 45 14 19 38 48 53 64 14 17 36 43 48 59 12 16 34 43 49 60
15 17 51 60 80 96 29 36 62 76 73 89 11 13 36 43 55 66 43 52 100 121 120 146
8 9 29 34 45 54 17 21 38 47 48 59 10 11 31 36 45 55 15 18 34 41 42 51 8 10
31 37 50 60 19 24 51 62 70 85 19 23 48 57 63 76 72 89 93 114 107 128 8 9 26
32 40 51 13 19 32 42 41 50 9 8 56 65 105 125 49 61 96 119 106 130 9 11 53
65 98 120 72 88 116 140 170 205 8 10 29 35 45 55 17 21 40 48 53 61 13 13 21
24 18 24 -3 0 7 12 21 28 14 15 37 43 52 62 14 19 31 40 37 45 6 6 28 32 50
60 21 27 48 59 59 71 11 12 34 39 50 60 17 20 38 46 48 56 9 10 17 21 17 24 0
3 6 11 13 18 6 7 28 32 49 57 115 139 128 155 149 178 8 9 22 26 30 37 15 22
84 105 137 164 17 21 32 43 32 49 0 6 4 11 9 11 4 0 28 26 53 58 25 31 60 73
77 92 17 19 31 37 32 40 1 3 2 271 3 596 l1 592 -2723 0 c-1497 0 -2723 -3
-2725 -7z"/>
<path d="M9273 7956 c-102 -124 -154 -185 -180 -214 -13 -14 -23 -28 -23 -31
0 -3 -15 -22 -33 -42 -39 -44 -53 -61 -142 -169 -38 -47 -76 -92 -85 -102 -8
-9 -25 -29 -37 -45 -12 -15 -31 -39 -43 -53 -12 -14 -34 -41 -48 -60 -15 -19
-36 -44 -47 -55 -11 -12 -36 -42 -55 -66 -19 -24 -44 -55 -56 -69 -58 -64
-234 -285 -234 -292 0 -5 8 -5 18 0 9 5 26 6 37 2 11 -4 30 -4 41 1 12 4 24 5
27 2 7 -6 107 -10 107 -3 0 7 89 4 97 -3 3 -4 13 -2 23 3 10 5 20 7 23 3 8 -7
97 -10 97 -3 0 7 89 4 97 -3 3 -4 13 -2 22 3 10 5 23 5 30 1 7 -5 30 -5 51 -1
21 4 44 4 51 -1 7 -4 20 -4 29 1 9 5 22 5 29 1 7 -5 30 -5 51 -1 21 4 44 4 51
-1 7 -4 20 -4 29 1 9 5 22 5 29 1 7 -5 30 -5 51 -1 21 4 44 4 51 -1 7 -4 20
-4 29 1 9 5 22 5 29 1 7 -5 30 -5 51 -1 21 4 44 4 51 -1 7 -4 20 -4 29 1 9 5
22 5 29 1 7 -5 30 -5 51 -1 21 4 44 4 51 -1 7 -4 20 -4 29 1 9 5 22 5 29 1 7
-5 30 -5 51 -1 21 4 44 4 51 -1 7 -4 20 -4 29 1 9 5 22 5 29 1 7 -5 30 -5 51
-1 21 4 44 4 51 -1 7 -4 20 -4 29 1 9 5 22 5 29 1 7 -5 30 -5 51 -1 21 4 44 4
51 -1 7 -4 20 -4 29 1 9 5 22 5 29 1 7 -5 28 -5 46 -1 18 4 39 4 46 -1 7 -4
20 -4 30 1 9 5 19 7 22 4 7 -7 107 -11 107 -4 0 7 89 4 97 -3 3 -4 14 -2 24 4
11 5 19 6 19 2 0 -4 23 -8 50 -8 28 0 50 2 50 5 0 3 19 4 42 2 24 -1 49 -3 56
-2 6 0 18 0 25 0 6 1 36 -1 65 -2 28 -2 52 -1 52 2 0 7 89 4 97 -3 3 -4 14 -2
24 4 11 5 19 6 19 2 0 -4 23 -8 50 -8 28 0 50 2 50 5 0 3 19 4 42 2 24 -1 49
-3 56 -2 6 0 18 0 25 0 6 1 36 -1 65 -2 28 -2 52 -1 52 2 0 7 89 4 97 -3 3 -4
14 -2 24 4 11 5 19 6 19 2 0 -4 23 -8 50 -8 28 0 50 2 50 5 0 3 19 4 42 2 24
-1 49 -3 56 -2 6 0 18 0 25 0 6 1 36 -1 65 -2 28 -2 52 -1 52 2 0 7 89 4 97
-3 3 -4 14 -2 24 4 11 5 19 6 19 2 0 -4 23 -8 50 -8 28 0 50 2 50 5 0 7 81 3
87 -4 3 -3 14 -1 24 4 10 6 20 7 23 2 2 -4 23 -6 45 -4 29 3 41 9 42 21 1 9 2
298 3 642 l1 627 -1498 0 -1498 0 -76 -92z"/>
</g>
</svg>
