<svg xmlns="http://www.w3.org/2000/svg" width="300" height="106.332" viewBox="0 0 300 106.332"><path d="M278.978,26.116a10.511,10.511,0,1,1,21.022,0,10.511,10.511,0,0,1-21.022,0m19.548,0a9.015,9.015,0,1,0-18.026,0c0,5,3.471,9.132,8.989,9.132,5.613,0,9.037-4.137,9.037-9.132M285.542,19.7h5.23a3.9,3.9,0,0,1,1.19,7.61l3.044,4.709h-2l-2.9-4.518h-2.854v4.518h-1.712Zm4.993,6.183a2.252,2.252,0,0,0,2.474-2.283,2.137,2.137,0,0,0-2.237-2.283h-3.518v4.566Z" transform="translate(0 -15.558)" style="fill:#fff"/><path d="M72.354,16.638H67.566v61c0,17.51-12.119,25.347-24.129,25.347-11.945,0-24-7.837-24-25.347l-.272-61H0v61c0,30.4,22.516,44.248,43.437,44.248,11.648,0,22.366-3.987,30.178-11.226,8.672-8.036,13.257-19.454,13.257-33.022v-61H72.354Z" transform="translate(0 -15.558)" style="fill:#fff"/><path d="M233.017,15.558c-28.794,0-52.22,23.85-52.22,53.165,0,29.738,22.938,53.031,52.22,53.031a51.642,51.642,0,0,0,36.871-15.271,52.747,52.747,0,0,0,15.349-37.76c0-29.315-23.426-53.165-52.22-53.165m0,87.431c-18.457,0-32.915-15.051-32.915-34.266,0-19.29,14.458-34.4,32.915-34.4s32.915,15.111,32.915,34.4c0,19.215-14.459,34.266-32.915,34.266" transform="translate(0 -15.558)" style="fill:#fff"/><polygon points="178.399 1.081 99.635 1.081 99.635 19.711 152.624 19.711 99.777 84.926 99.777 105.251 106.569 105.251 178.402 18.198 178.399 1.081" style="fill:#fff"/><polygon points="119.706 105.251 178.403 105.251 178.403 100.462 178.403 91.409 178.403 86.62 135.079 86.62 119.706 105.251" style="fill:#fff"/></svg>